<svg width="584" height="327" viewBox="0 0 584 327" fill="none" xmlns="http://www.w3.org/2000/svg">
<path fill-rule="evenodd" clip-rule="evenodd" d="M121.328 192.464L122.819 211.156L151.137 217.885L172.749 227.604L189.89 242.558L198.087 235.829L208.52 212.651L220.444 210.408L263.668 214.894L278.572 219.38L273.356 244.801L268.139 263.492L354.586 258.259L351.605 214.894L333.719 175.268L262.922 140.875L210.011 147.604L172.749 188.726L156.354 197.698L127.29 196.202" fill="#7FBBCA"/>
<path fill-rule="evenodd" clip-rule="evenodd" d="M477.777 20.6591C483.601 27.7391 475.02 37.7513 470.155 42.6915C467.793 45.09 465.836 47.8619 463.528 50.3201C461.247 52.7491 458.385 54.661 456.336 57.0058C454.186 59.4684 451.704 62.1636 449.906 64.934C448.768 66.6893 447.08 68.6496 446.515 70.6866C445.703 73.6158 446.382 71.9239 447.456 73.58C448.552 75.2712 448.922 75.3689 449.294 77.7264C449.655 80.0183 450.169 81.6953 451.407 83.6534C453.447 86.8785 455.649 89.9105 457.088 93.4763C459 98.2189 460.353 103.034 461.876 107.913C462.47 109.816 462.869 111.995 463.828 113.748C465.189 116.238 465.381 116.03 467.407 114.476C473.455 109.84 479.572 104.94 485.877 100.521C489.489 97.9901 493.241 95.5118 497.053 93.2944C499.669 91.7724 505.29 89.0638 506.6 86.239C508.337 82.4929 505.634 79.0553 509.354 75.6059C511.777 73.3594 515.726 72.1139 518.882 71.5684C523.344 70.7977 528.272 71.8985 532.729 72.2973C537.234 72.6998 541.64 72.2615 546.058 71.3395C552.822 69.9286 565.816 62.1211 570.2 71.5005C572.118 75.6044 570.821 80.1517 570.46 84.3585C570.147 88.0248 569.071 91.917 566.787 94.9327C564.177 98.3784 560.377 98.5588 556.425 99.474C551.757 100.554 546.967 100.948 542.293 102.002C539.991 102.52 537.72 102.773 535.356 102.882C533.252 102.979 530.218 102.127 528.371 102.396C526.621 102.651 527.219 103.756 525.989 104.522C525.491 104.833 524.474 104.61 524.163 104.861C523.308 105.548 523.061 106.146 522.438 107.391C520.458 111.345 517.463 115.199 514.917 118.822C512.774 121.873 510.29 125.61 507.768 128.332C502.421 134.106 497.228 140.467 491.951 146.5C489.266 149.569 486.046 152.835 482.926 155.473C481.963 156.288 480.017 157.021 479.525 158.161C478.822 159.787 480.732 163.364 481.178 164.998C482.238 168.883 482.382 172.895 483.506 176.721C484.582 180.38 484.973 184.37 485.211 188.183C485.751 196.804 486.929 204.981 486.653 213.606C486.413 221.045 486.141 228.179 483.558 235.482C481.207 242.13 474.163 249.367 467.612 251.816C463.712 253.275 460.09 254.6 456.166 255.391C452.29 256.172 448.207 256.972 444.359 258.071C437.22 260.111 429.695 261.535 422.28 262.233C412.79 263.127 402.89 263.213 393.425 262.884C389.109 262.734 384.672 262.725 380.412 262.738C375.998 262.751 371.839 263.621 367.427 264.084C351.854 265.717 335.397 264.405 319.834 266.002C312.141 266.791 304.461 268.311 296.635 268.402C289.629 268.482 282.525 268.02 275.673 267.99C273.5 267.98 271.607 268.154 269.435 267.655C268.29 267.392 266.68 266.368 265.524 266.958C264.514 267.473 263.753 269.646 263.126 270.571C261.759 272.594 260.091 274.219 258.331 275.897C251.344 282.557 244.42 284.799 235.25 287.24C231.04 288.361 228.961 288.947 225.427 291.511C222.548 293.599 219.634 295.099 216.32 296.331C209.819 298.746 202.154 296.878 196.044 294.783C193.086 293.768 189.978 292.845 186.955 291.641C182.838 290.001 179.441 287.277 175.383 285.601C175.849 289.93 171.153 291.385 169.729 294.294C168.809 296.173 169.366 299.125 168.385 301.25C167.475 303.221 166.068 305.084 163.874 305.6C160.883 306.302 155.538 302.975 153.437 301.035C152.271 299.957 151.23 297.087 149.802 296.609C147.94 295.986 144.526 298.741 142.764 299.363C134.328 302.34 125.78 303.745 116.723 302.559C107.546 301.357 99.1334 298.098 90.5274 295.008C73.6728 288.956 59.0021 278.994 45.8041 266.998C45.07 266.331 44.0045 265.736 43.4981 264.861C43.0559 264.097 43.0946 262.293 42.8057 261.867C41.9457 260.597 40.6575 260.822 39.0447 260.7C34.0619 260.324 30.1037 259.121 26.2414 255.782C20.1626 250.526 17.9139 238.271 27.2325 235.016C29.6145 234.184 32.2362 234.018 34.6985 234.531C35.7142 234.743 39.4922 237.033 40.4572 236.879C41.9203 236.647 41.6359 234.763 42.0246 233.757C43.0104 231.207 44.3976 228.962 46.07 226.798C48.8495 223.201 52.2367 219.586 55.7125 216.659C59.4883 213.477 63.6461 212.066 68.1412 210.305C71.1695 209.118 77.0808 207.081 80.2885 208.142C84.4657 209.525 82.421 214.09 79.7889 215.687C76.0294 217.968 71.5179 218.903 67.7086 221.211C63.5046 223.759 59.6648 227.248 55.8174 230.31C52.7214 232.774 50.0386 235.815 46.8935 238.177C46.0595 238.804 44.6977 239.899 44.4386 240.245C44.3485 240.365 44.4594 241.339 44.0469 241.772C42.2174 243.693 42.6456 243.476 39.8906 242.802C36.6427 242.008 28.8892 240.211 26.6994 244.238C24.7284 247.862 32.7954 251.127 35.4439 252.232C39.3321 253.854 40.2405 255.484 43.0186 258.575C45.8645 261.743 50.5919 263.896 54.157 266.258C61.8628 271.362 70.5247 274.984 78.777 279.039C86.8074 282.985 95.4402 285.826 103.808 288.587C108.86 290.253 114.914 292.041 120.217 292.555C125.559 293.073 130.569 292.201 135.811 291.182C137.907 290.774 139.49 290.462 141.682 289.689C142.658 289.345 144.251 289.294 145.026 288.692C146.227 287.758 145.728 287.012 145.941 285.417C146.872 278.422 151.723 286.231 153.871 288.559C155.527 290.356 157.159 292.565 159.34 293.704C162.073 295.13 162.547 294.458 163.443 292.106C165.12 287.702 165.751 282.696 172.087 283.343C167.084 279.063 162.317 275.426 158.034 270.282C153.81 265.208 149.86 259.755 145.808 254.54C142.487 250.265 139.595 244.367 135.285 240.995C133.922 239.929 129.78 237.473 128.203 237.525C125.843 237.601 123.748 241.457 121.206 241.777C118.398 242.132 117.106 241.152 116.304 238.872C115.472 236.507 117.46 233.785 116.788 232.066C116.602 231.587 115.406 231.014 115.037 230.319C114.482 229.276 114.442 227.903 114.608 226.748C114.855 225.023 115.465 224.319 115.335 222.584C115.184 220.568 114.3 219.094 114.996 216.985C115.727 214.77 117.975 213.556 119.377 211.92C121.501 209.444 120.416 207.577 119.564 204.396C117.74 197.59 115.613 190.861 113.762 184.058C109.505 185.405 105.343 186.932 101.063 188.187C96.9473 189.395 91.8535 190.479 88.0345 192.384C85.7397 193.529 86.377 192.477 86.5468 195.02C86.6555 196.665 87.351 198.505 87.6741 200.128C88.2705 203.125 88.5304 210.861 90.8781 212.292C92.2995 213.16 94.5869 211.9 96.1498 213.651C97.4663 215.124 97.0716 217.267 97.8639 218.904C98.3561 219.922 99.3084 220.31 99.9011 221.245C101.139 223.201 101.007 224.845 101.225 227.038C101.362 228.417 101.15 232.551 101.836 233.623C102.752 235.054 104.567 234.805 106.097 235.251C109.952 236.374 113.503 238.327 116.777 240.604C118.476 242.682 130.637 254.848 125.356 256.396C122.806 257.143 118.293 251.398 116.458 249.836C113.613 247.416 110.633 245.826 107.164 244.491C98.6971 241.233 91.0367 238.306 81.8164 239.658C77.8634 240.238 73.0615 241.988 69.0906 241.603C65.0943 241.215 66.1293 237.65 68.6282 235.661C70.8627 233.883 73.9729 234.383 74.9535 231.401C75.943 228.388 74.8805 224.581 76.4687 221.562C77.8246 218.984 81.0212 216.308 83.4888 214.815C84.5647 214.164 86.4091 213.709 86.9712 212.75C87.4321 211.963 85.5327 207.451 85.2691 206.514C83.9795 201.919 82.5737 197.321 81.4813 192.676C80.4687 188.372 80.2051 186.141 84.7389 184.579C91.6584 182.194 98.913 181.079 105.835 178.886C104.608 175.689 100.773 178.379 98.018 178.268C94.6435 178.132 90.7389 177.022 87.5252 175.985C80.2297 173.631 75.2655 167.76 74.1382 160.191C73.8902 158.53 74.6713 155.2 74.0667 153.731C73.4963 152.344 71.8835 151.67 70.7048 150.681C67.6669 148.135 64.9759 144.64 63.3371 141.022C61.6945 137.396 61.5798 133.322 62.5344 129.496C63.0601 127.387 63.3572 127.097 62.6141 125.103C61.7533 122.797 60.3498 120.744 59.556 118.374C58.256 114.492 57.5471 110.307 57.6179 106.208C57.6983 101.609 59.5426 99.5456 60.7645 95.4909C61.7288 92.2904 60.4131 87.8668 60.6335 84.3152C60.9157 79.7709 62.0787 76.1202 64.0869 72.0752C67.1725 65.8605 72.0585 59.1986 78.4181 55.94C79.6757 55.2953 81.7427 55.2572 82.8663 54.5082C84.2624 53.5772 84.3718 52.2051 84.9184 50.5742C86.2222 46.685 87.8498 43.5345 90.6689 40.5613C99.8117 30.9188 115.833 27.5036 128.682 28.3175C130.989 28.4643 133.189 29.5563 135.376 28.9145C136.891 28.4696 138.496 26.8909 140.058 26.2372C142.035 25.4099 144.016 24.9262 146.143 24.7145C150.344 24.2956 153.761 24.7384 157.633 26.1567C159.095 26.6927 160.495 27.2777 161.935 27.8591C164.21 28.7781 164.081 28.3406 166.22 27.9143C170.483 27.0653 172.933 27.6936 176.71 29.513C177.717 29.9975 179.31 30.3575 180.175 31.0365C181.401 31.9988 181.9 34.9227 183.264 35.4683C184.021 35.7717 186.36 34.6559 187.336 34.4972C189.057 34.2162 190.743 34.4636 192.456 34.445C195.488 34.4122 198.694 34.5247 201.463 35.9588C203.548 37.038 206.059 39.1205 207.854 40.5076C210.339 42.4261 211.892 46.0537 214.994 47.0584C216.21 47.452 217.524 47.054 218.765 47.3894C220.382 47.8261 221.935 48.9978 223.245 50.0324C225.498 51.8115 227.404 55.9474 229.699 56.6704C231.231 57.1534 233.612 56.6495 235.365 57.1497C237.564 57.7772 239.388 58.6866 241.019 60.3509C244.129 63.5261 245.007 68.2195 245.141 72.5246C245.176 73.6851 244.461 76.9572 245.156 77.9873C245.774 78.9011 248.1 79.428 249.047 80.3656C252.007 83.2971 253.345 88.1821 253.644 92.198C253.986 96.7804 252.803 100.01 251.989 104.395C251.482 107.128 250.826 105.377 253.132 106.987C254.715 108.092 255.809 108.865 256.836 110.601C258.983 114.228 259.523 118.505 259.169 122.639C258.726 127.798 256.11 131.642 254.934 136.523C260.354 136.523 266.193 137.955 271.489 138.955C273.443 139.324 274.956 140.398 276.691 141.26C278.187 142.003 279.303 142.089 280.716 142.582C284.133 143.774 283.472 143.575 285.85 141.136C295.32 131.421 308.8 125.556 322.395 125.747C329.977 125.853 337.312 126.854 344.4 129.583C347.338 130.714 350.604 131.933 353.211 133.707C356.23 135.763 356.679 135.739 360.671 135.822C375.126 136.122 389.152 143.885 399.671 153.295C400.611 146.984 410.862 143.199 415.826 140.583C417.522 139.689 419.081 139.223 419.915 137.548C420.696 135.981 420.65 132.757 421.172 130.91C422.131 127.52 423.238 123.371 423.151 119.796C422.903 109.444 420.508 99.1394 420.198 88.7635C420.119 86.1577 419.824 83.233 420.17 80.6526C420.449 78.5738 421.398 77.2777 420.034 75.3532C417.444 71.7003 412.669 70.788 411.064 65.979C408.476 58.2297 412.921 50.3052 418.989 45.696C422.483 43.0425 425.897 42.4805 428.698 38.7605C431.22 35.4087 433.352 31.445 436.226 28.398C438.637 25.8437 440.833 22.4211 443.596 20.2954C446.429 18.116 450.588 16.6424 453.971 15.6071C462.091 13.1207 472.063 13.714 477.777 20.6591ZM223.95 215.333C222.061 215.413 220.16 215.626 218.268 215.623C217.116 215.622 214.441 215 213.404 215.438C211.331 216.316 209.653 221.116 208.685 223.031C205.546 229.242 203.075 235.753 200.013 241.987C198.42 245.23 196.042 247.362 192.284 247.414C188.074 247.473 186.092 244.774 183.42 242.006C178.092 236.484 170.919 231.737 164.305 227.896C157.16 223.749 148.641 219.729 140.507 218.265C135.091 217.29 122.68 213.084 119.385 219.878C121.069 219.653 127.497 218.67 127.77 221.519C127.974 223.657 120.067 224.022 119.09 227.374C121.158 227.213 128.295 225.22 128.797 228.293C129.063 229.927 126.081 230.75 125.032 231.301C122.953 232.394 121.701 233.529 120.065 235.173C122.59 235.173 125.079 233.029 127.476 233.252C128.465 233.345 129.654 234.823 130.554 235.274C131.83 235.913 133.207 236.231 134.615 236.406C137.679 236.785 139.534 235.921 141.977 237.917C144.17 239.708 146.451 242.074 148.472 244.069C152.784 248.327 156.335 253.731 160.034 258.516C164.603 264.424 169.346 269.114 175.423 273.539C180.369 277.14 185.383 279.472 190.987 282.123C196.485 284.724 203.4 287.741 209.638 287.884C214.613 287.998 220.832 286.402 225.36 284.278C227.993 283.043 228.951 283.045 231.586 282.556C235.676 281.797 240.41 279.601 244.197 277.879C256.086 272.469 263.621 260.679 268.982 249.139C272.033 242.571 273.939 236.154 275.211 229.048C275.904 225.176 276.507 224.268 272.736 222.667C268.927 221.05 264.81 220.051 260.845 218.909C249.215 215.56 235.959 214.821 223.95 215.333ZM252.36 145.281C251.174 145.816 250.543 151.521 250.01 152.792C247.634 158.463 243.419 162.002 237.238 162.592C235.319 162.775 232.189 161.028 230.814 161.854C228.973 162.96 228.64 168.247 226.658 169.981C224.834 171.579 221.034 173.267 218.694 173.881C216.888 174.355 215.096 174.225 213.297 173.807C212.27 173.569 210.312 172.301 209.306 172.779C207.595 173.595 206.788 177.936 204.834 179.409C201.977 181.563 197.441 183.158 193.943 183.117C190.336 183.076 185.989 180.226 182.777 180.908C178.965 181.718 179.466 185.264 177.802 188.036C174.267 193.923 170.251 198.993 163.897 201.804C157.023 204.843 147.171 205.23 139.962 203.684C136.043 202.843 132.11 201.654 128.802 199.408C126.167 197.617 124.189 195.234 121.749 193.211L121.35 192.888L121.37 192.959C121.424 193.148 121.479 193.332 121.535 193.51C122.698 197.216 123.214 203.792 125.523 206.814C127.589 209.519 134.763 209.67 138.217 210.034C147.473 211.01 155.433 213.176 163.598 217.82C171.413 222.264 178.552 227.643 185.318 233.439C186.708 234.63 187.819 236.538 189.5 237.305C192.246 238.555 192.024 237.095 192.75 234.65C194.24 229.634 195.82 224.68 198.091 219.952C199.062 217.926 201.274 215.415 201.749 213.264C202.203 211.199 201.27 208.947 201.587 206.73C202.388 201.13 204.916 196.355 208.084 191.827C210.283 188.684 216.864 183.332 216.023 191.243C215.402 197.085 211.137 202.261 210.088 208.001C213.322 207.398 215.352 207.574 218.263 207.758C222.236 208.009 226.753 206.454 230.848 206.441C238.699 206.416 246.433 206.928 254.15 208.327C257.724 208.976 261.126 209.708 264.572 210.931C267.28 211.892 270.88 214.953 273.764 215.186C275.855 215.355 275.126 215.629 275.695 213.845C276.224 212.19 275.656 209.211 275.55 207.474C275.31 203.544 274.368 199.719 273.88 195.815C273.671 194.139 271.671 187.156 273.781 185.802C277.009 183.731 278.358 191.858 278.77 193.314C280.875 200.776 282.23 208.128 282.167 215.93C282.112 222.678 281.664 229.164 280.402 235.872C279.656 239.834 278.287 243.64 276.752 247.356C275.943 249.313 271.199 256.732 271.859 258.039C272.388 259.086 280.449 257.263 281.688 257.157C286.101 256.779 290.524 257.042 294.942 256.78C301.471 256.391 308.049 256.471 314.302 255.32C318.03 254.633 321.986 255.29 325.71 255.314C329.818 255.34 333.788 254.961 337.923 255.353C341.063 255.65 345.775 257.307 348.804 256.619C351.905 255.914 350.989 253.838 351.011 250.681C351.061 243.052 350.382 234.273 348.679 226.856C347.78 222.945 346.571 219.159 345.927 215.184C345.282 211.206 345.315 206.908 344.116 203.057C341.988 196.223 336.138 190.292 331.292 185.242C326.306 180.046 320.759 176.273 314.642 172.546C309.442 169.379 303.948 166.405 298.314 163.928C291.553 160.954 283.876 159.12 277.61 155.205C272.396 151.947 264.854 148.735 258.838 147.226C257.886 146.988 253.033 144.979 252.36 145.281ZM438.084 82.1284C433.746 82.7381 425.637 80.6191 425.641 86.6005C425.642 89.8815 426.731 93.322 427.04 96.6045C427.404 100.478 427.152 104.376 427.742 108.235C428.697 114.481 430.098 120.249 429.629 126.666C429.118 133.642 427.664 140.345 427.8 147.421C427.928 154.154 427.565 160.647 430.765 166.826C432.115 169.434 433.21 172.499 434.696 174.94C436.436 177.801 437.944 178.639 441.056 179.791C443.004 180.512 447.803 181.452 449.065 183.396C450.887 186.203 448.453 187.338 446.057 187.243C438.654 186.948 431.053 183.645 424.113 181.232C420.847 180.096 417.704 178.666 414.495 177.427C411.93 176.436 409.84 176.094 407.507 174.404C401.824 170.286 397.437 164.595 391.832 160.371C381.229 152.38 368.516 147.609 355.198 146.194C351.772 145.829 349.119 145.993 345.687 146.284C343.788 146.445 341.908 146.496 340.028 146.845C338.942 147.047 334.859 148.987 334.011 148.584C328.502 145.965 344.102 137.992 345.856 137.556C343.64 135.994 339.036 136.264 336.377 135.916C332.983 135.472 329.683 135.039 326.254 135.226C321.462 135.488 316.365 135.347 311.661 136.381C305.768 137.677 300.188 139.666 294.862 142.457C293.084 143.389 290.583 144.522 290.6 147.119C290.616 149.559 291.588 149.159 293.964 149.7C300.365 151.157 306.289 155.399 311.992 158.632C318.056 162.068 324.095 165.929 329.722 170.046C340.509 177.94 346.665 189.297 351.456 201.642C353.934 208.027 355.731 215.483 356.476 222.288C357.306 229.859 356.614 237.474 357.206 245.037C357.346 246.824 357.585 253.956 358.933 255.068C359.956 255.911 365.034 254.404 366.465 254.305C372.448 253.893 378.467 253.934 384.336 253.596C396.74 252.881 409.456 253.878 421.973 253.142C428.27 252.772 434.366 251.887 440.541 250.616C446.28 249.435 453.432 249.294 458.667 246.566C468.745 241.315 474.889 228.656 475.331 217.938C475.811 206.318 475.017 193.674 472.577 182.099C471.298 176.03 470.188 170.253 468.683 164.256C466.998 157.541 465.105 150.855 463.256 144.223C460.07 132.807 455.111 122.172 452.737 110.472C451.431 104.036 449.581 97.3066 447.649 91.0248C446.937 88.7098 445.534 84.3115 443.877 82.5525C442.136 80.7055 440.675 81.7647 438.084 82.1284ZM84.4694 221.163C81.8566 222.835 79.9728 226.593 80.0919 229.692C80.0919 233.783 83.4873 232.04 86.6868 232.189C88.6346 232.279 95.8378 234.277 97.1044 232.348C98.6167 230.044 94.0687 231.073 93.4931 229.837C92.3293 227.338 97.6658 226.282 97.0136 224.117C96.3613 221.951 90.9392 226.949 89.7768 224.434C88.7009 222.106 94.1781 220.093 93.3375 218.49C92.6242 217.131 85.3927 220.571 84.4694 221.163ZM95.8151 199.85C95.8017 201.594 95.2008 203.913 93.0333 203.557C90.3267 203.113 89.5062 197.916 89.259 195.95C90.9924 189.476 95.8442 195.879 95.8151 199.85ZM174.406 144.208C171.276 144.699 170.923 146.1 169.46 148.25C168.792 147.718 168.378 147.012 168.219 146.133C160.82 149.466 153.122 152.07 145.096 153.302C136.155 154.676 126.827 152.597 117.742 151.75C116.566 151.641 112.957 150.187 111.998 150.764C111.205 151.242 111.219 155.252 111.154 156.027C110.713 161.31 111.72 165.977 112.496 171.148C112.703 172.525 112.5 175.506 113.584 176.681C114.348 177.506 115.706 177.206 116.672 178.453C119.277 181.818 120.09 188.334 121.29 192.673L121.319 192.779L121.325 192.701C121.696 188.277 125.154 190.55 127.727 191.71C131.595 193.454 135.649 194.386 139.834 194.973C143.198 195.445 147.016 196.572 150.468 196.392C154.093 196.203 158.553 194.768 162.082 193.735C165.426 192.757 167.271 190.64 169.579 187.914C171.784 185.311 174.183 183.528 176.563 181.205C182.557 175.352 180.916 163.226 175.709 157.498C179.922 155.336 187.228 150.583 180.821 145.762C179.165 144.515 176.403 143.895 174.406 144.208ZM121.319 192.779L121.313 192.858L121.35 192.888L121.319 192.779ZM141.845 182.732C143.506 182.858 144.7 184.107 144.263 185.829C143.71 188.004 139.929 189.366 138.039 189.487C133.028 190.086 137.768 182.424 141.845 182.732ZM126.022 174.363C126.201 175.626 126.023 176.413 127.118 176.823C127.955 177.137 129.536 176.491 130.565 176.927C131.592 177.363 131.625 177.627 132.256 178.651C131.542 180.886 128.265 183.413 125.635 182.069C122.366 180.398 122.061 173.807 122.958 170.994C124.477 166.227 125.754 172.48 126.022 174.363ZM416.738 149.191C415.374 149.686 414.171 151.091 412.951 151.856C409.706 153.89 406.157 154.97 403.049 157.197C405.268 159.592 406.431 162.84 408.598 165.144C409.955 166.586 411.604 166.747 413.236 167.529C418.003 169.817 423.613 173.034 428.879 174.128C425.795 170.52 423.839 167.256 422.008 162.873C421.354 161.306 420.533 159.648 420.043 158.02C419.34 155.689 419.718 153.222 419.122 150.921C418.481 148.437 419.366 148.237 416.738 149.191ZM117.028 162.848C118.414 164.485 119.48 168.174 119.598 170.264C118.135 177.269 113.239 167.604 113.388 164.466C113.526 161.573 115.045 160.509 117.028 162.848ZM130.294 159.015C132.67 161.041 133.445 164.426 133.692 167.223C133.96 170.254 133.267 171.543 130.248 169.594C127.605 167.888 126.282 163.346 126.145 160.684C126.145 157.651 127.991 157.051 130.294 159.015ZM178.093 150.338C178.686 153.502 171.681 156.753 172.825 151.799C172.596 148.638 177.463 146.987 178.093 150.338ZM508.844 93.0924C503.553 99.5523 497.145 103.654 490.524 108.535C484.659 112.86 479.075 117.532 472.725 121.121C470.86 122.176 467.807 122.789 467.47 124.748C467.153 126.59 470.571 131.536 471.361 133.533C474.028 140.267 475.997 147.178 478.081 154.126C484.296 144.44 490.564 134.592 498.181 125.834C504.903 118.105 511.799 110.017 517.675 101.688C514.118 99.5218 511.171 96.5337 508.844 93.0924ZM547.628 78.1952C541.735 80.037 534.947 81.0737 528.805 80.4461C526.021 80.1614 523.279 79.9244 520.468 79.7507C518.364 79.6211 514.805 78.5947 512.995 80.2166C511.282 81.7498 511.489 84.8012 512.361 86.7071C512.925 87.9391 513.707 88.1381 514.218 89.1585C514.383 89.4872 513.895 90.0551 514.319 90.8281C515.483 92.9553 519.446 96.5098 521.581 97.5928C524.319 98.9829 524.729 97.3662 526.864 95.9657C531.359 93.0179 538.91 92.9642 544.176 92.4335C544.283 93.5665 559.544 88.1202 561.05 87.1207C563.867 85.2521 567.168 76.6516 564.171 74.1025C560.553 71.0257 551.128 77.1003 547.628 78.1952ZM444.999 37.199C443.144 40.1551 440.678 43.3287 437.938 45.5402C434.843 48.0378 430.827 49.0075 427.289 50.7166C424.084 52.2639 421.236 53.8142 419.236 56.8001C417.852 58.8654 415.316 61.7633 416.472 64.425C417.656 67.1477 422.316 69.0573 424.34 71.4238C427.128 74.6817 427.132 74.0422 431.308 73.1418C433.393 72.6916 435.375 72.5515 437.506 72.626C438.369 72.6558 441.28 73.501 442.045 72.9338C443.023 72.2071 442.061 69.19 442.185 68.016C442.374 66.2302 443.008 64.3877 443.61 62.704C445.996 56.0197 450.532 51.6118 454.942 46.5434C459.673 41.1054 466.155 37.2885 470.818 31.8251C473.392 28.8087 472.22 26.6763 468.688 25.2638C466.892 24.5468 464.789 24.5498 462.947 23.9781C461.042 23.387 459.345 22.2228 457.304 22.1997C448.631 21.8516 448.355 31.8497 444.999 37.199Z" fill="#132C33"/>
</svg>
